{
	"asset":{
		"generator":"Khronos glTF Blender I/O v3.6.27",
		"version":"2.0"
	},
	"scene":0,
	"scenes":[
		{
			"name":"Scene",
			"nodes":[
				2
			]
		}
	],
	"nodes":[
		{
			"mesh":0,
			"name":"mesh_hoverboard_grey",
			"translation":[
				0,
				0,
				206.59078979492188
			]
		},
		{
			"mesh":1,
			"name":"mesh_hoverboard_red",
			"translation":[
				0,
				0,
				206.59078979492188
			]
		},
		{
			"children":[
				0,
				1
			],
			"name":"base_01_low_tri_merged",
			"rotation":[
				0.7071068286895752,
				0,
				0,
				0.7071068286895752
			],
			"scale":[
				0.009999999776482582,
				0.009999999776482582,
				0.009999999776482582
			],
			"translation":[
				0,
				2.0659079551696777,
				0
			]
		}
	],
	"materials":[
		{
			"doubleSided":true,
			"name":"m_hoverboard_grey",
			"pbrMetallicRoughness":{
				"baseColorFactor":[
					0.5,
					0.5,
					0.5,
					1
				],
				"metallicFactor":0,
				"roughnessFactor":0.5527864098548889
			}
		},
		{
			"doubleSided":true,
			"name":"m_hoverboard_red",
			"pbrMetallicRoughness":{
				"baseColorFactor":[
					1,
					0.02590000070631504,
					0.08699999749660492,
					1
				],
				"metallicFactor":0,
				"roughnessFactor":0.5527864098548889
			}
		}
	],
	"meshes":[
		{
			"name":"Mesh",
			"primitives":[
				{
					"attributes":{
						"COLOR_0":0,
						"POSITION":1,
						"NORMAL":2,
						"TEXCOORD_0":3
					},
					"indices":4,
					"material":0
				}
			]
		},
		{
			"name":"Mesh.001",
			"primitives":[
				{
					"attributes":{
						"COLOR_0":5,
						"POSITION":6,
						"NORMAL":7,
						"TEXCOORD_0":8
					},
					"indices":9,
					"material":1
				}
			]
		}
	],
	"accessors":[
		{
			"bufferView":0,
			"componentType":5123,
			"count":8408,
			"normalized":true,
			"type":"VEC4"
		},
		{
			"bufferView":1,
			"componentType":5126,
			"count":8408,
			"max":[
				106.8252182006836,
				190.99224853515625,
				12.329513549804688
			],
			"min":[
				-106.8252182006836,
				-128.6692657470703,
				-80.89488983154297
			],
			"type":"VEC3"
		},
		{
			"bufferView":2,
			"componentType":5126,
			"count":8408,
			"type":"VEC3"
		},
		{
			"bufferView":3,
			"componentType":5126,
			"count":8408,
			"type":"VEC2"
		},
		{
			"bufferView":4,
			"componentType":5123,
			"count":43500,
			"type":"SCALAR"
		},
		{
			"bufferView":5,
			"componentType":5123,
			"count":932,
			"normalized":true,
			"type":"VEC4"
		},
		{
			"bufferView":6,
			"componentType":5126,
			"count":932,
			"max":[
				143.87289428710938,
				184.62396240234375,
				18.063186645507812
			],
			"min":[
				-143.87289428710938,
				-145.98240661621094,
				-86.92383575439453
			],
			"type":"VEC3"
		},
		{
			"bufferView":7,
			"componentType":5126,
			"count":932,
			"type":"VEC3"
		},
		{
			"bufferView":8,
			"componentType":5126,
			"count":932,
			"type":"VEC2"
		},
		{
			"bufferView":9,
			"componentType":5123,
			"count":3990,
			"type":"SCALAR"
		}
	],
	"bufferViews":[
		{
			"buffer":0,
			"byteLength":67264,
			"byteOffset":0,
			"target":34962
		},
		{
			"buffer":0,
			"byteLength":100896,
			"byteOffset":67264,
			"target":34962
		},
		{
			"buffer":0,
			"byteLength":100896,
			"byteOffset":168160,
			"target":34962
		},
		{
			"buffer":0,
			"byteLength":67264,
			"byteOffset":269056,
			"target":34962
		},
		{
			"buffer":0,
			"byteLength":87000,
			"byteOffset":336320,
			"target":34963
		},
		{
			"buffer":0,
			"byteLength":7456,
			"byteOffset":423320,
			"target":34962
		},
		{
			"buffer":0,
			"byteLength":11184,
			"byteOffset":430776,
			"target":34962
		},
		{
			"buffer":0,
			"byteLength":11184,
			"byteOffset":441960,
			"target":34962
		},
		{
			"buffer":0,
			"byteLength":7456,
			"byteOffset":453144,
			"target":34962
		},
		{
			"buffer":0,
			"byteLength":7980,
			"byteOffset":460600,
			"target":34963
		}
	],
	"buffers":[
		{
			"byteLength":468580,
			"uri":"hoverboard.bin"
		}
	]
}
