{
    "asset" : {
        "generator" : "Khronos glTF Blender I/O v3.4.50",
        "version" : "2.0"
    },
    "scene" : 0,
    "scenes" : [
        {
            "name" : "Scene",
            "nodes" : [
                0
            ]
        }
    ],
    "nodes" : [
        {
            "mesh" : 0,
            "name" : "C_Track",
            "rotation" : [
                0.70710688829422,
                0,
                0,
                0.7071066498756409
            ],
            "scale" : [
                0.009999999776482582,
                0.009999999776482582,
                0.009999999776482582
            ]
        }
    ],
    "materials" : [
        {
            "doubleSided" : true,
            "name" : "lambert1",
            "pbrMetallicRoughness" : {
                "baseColorFactor" : [
                    0.5,
                    0.5,
                    0.5,
                    1
                ],
                "metallicFactor" : 0,
                "roughnessFactor" : 0.5527864098548889
            }
        }
    ],
    "meshes" : [
        {
            "name" : "Mesh.003",
            "primitives" : [
                {
                    "attributes" : {
                        "POSITION" : 0,
                        "TEXCOORD_0" : 1,
                        "NORMAL" : 2,
                        "TANGENT" : 3
                    },
                    "indices" : 4,
                    "material" : 0
                }
            ]
        }
    ],
    "accessors" : [
        {
            "bufferView" : 0,
            "componentType" : 5126,
            "count" : 614,
            "max" : [
                4009.076904296875,
                2395.154296875,
                -255.76785278320312
            ],
            "min" : [
                -4009.07666015625,
                -2395.154541015625,
                -390.22808837890625
            ],
            "type" : "VEC3"
        },
        {
            "bufferView" : 1,
            "componentType" : 5126,
            "count" : 614,
            "type" : "VEC2"
        },
        {
            "bufferView" : 2,
            "componentType" : 5126,
            "count" : 614,
            "type" : "VEC3"
        },
        {
            "bufferView" : 3,
            "componentType" : 5126,
            "count" : 614,
            "type" : "VEC4"
        },
        {
            "bufferView" : 4,
            "componentType" : 5123,
            "count" : 1560,
            "type" : "SCALAR"
        }
    ],
    "bufferViews" : [
        {
            "buffer" : 0,
            "byteLength" : 7368,
            "byteOffset" : 0,
            "target" : 34962
        },
        {
            "buffer" : 0,
            "byteLength" : 4912,
            "byteOffset" : 7368,
            "target" : 34962
        },
        {
            "buffer" : 0,
            "byteLength" : 7368,
            "byteOffset" : 12280,
            "target" : 34962
        },
        {
            "buffer" : 0,
            "byteLength" : 9824,
            "byteOffset" : 19648,
            "target" : 34962
        },
        {
            "buffer" : 0,
            "byteLength" : 3120,
            "byteOffset" : 29472,
            "target" : 34963
        }
    ],
    "buffers" : [
        {
            "byteLength" : 32592,
            "uri" : "C_TrackTest.bin"
        }
    ]
}
